<mxfile host="65bd71144e">
    <diagram id="XluY25YT8nwwG1uVl9oo" name="Page-1">
        <mxGraphModel dx="750" dy="595" grid="1" gridSize="10" guides="1" tooltips="1" connect="1" arrows="1" fold="1" page="1" pageScale="1" pageWidth="1169" pageHeight="827" math="0" shadow="0">
            <root>
                <mxCell id="0"/>
                <mxCell id="1" parent="0"/>
                <mxCell id="jVJawiF9bpjg_hJSosH5-25" value="" style="endArrow=diamondThin;endFill=1;endSize=24;html=1;exitX=0.456;exitY=0.006;exitDx=0;exitDy=0;exitPerimeter=0;entryX=0.397;entryY=1.115;entryDx=0;entryDy=0;entryPerimeter=0;" parent="1" source="jVJawiF9bpjg_hJSosH5-18" target="jVJawiF9bpjg_hJSosH5-4" edge="1">
                    <mxGeometry width="160" relative="1" as="geometry">
                        <mxPoint x="210" y="260" as="sourcePoint"/>
                        <mxPoint x="370" y="260" as="targetPoint"/>
                    </mxGeometry>
                </mxCell>
                <mxCell id="jVJawiF9bpjg_hJSosH5-35" value="" style="endArrow=diamondThin;endFill=1;endSize=24;html=1;exitX=0.5;exitY=0;exitDx=0;exitDy=0;entryX=0.467;entryY=1.154;entryDx=0;entryDy=0;entryPerimeter=0;" parent="1" source="jVJawiF9bpjg_hJSosH5-26" target="jVJawiF9bpjg_hJSosH5-4" edge="1">
                    <mxGeometry width="160" relative="1" as="geometry">
                        <mxPoint x="202.96000000000004" y="360.98400000000004" as="sourcePoint"/>
                        <mxPoint x="259.1" y="258.99" as="targetPoint"/>
                    </mxGeometry>
                </mxCell>
                <mxCell id="jVJawiF9bpjg_hJSosH5-1" value="Resume" style="swimlane;fontStyle=1;align=center;verticalAlign=top;childLayout=stackLayout;horizontal=1;startSize=26;horizontalStack=0;resizeParent=1;resizeParentMax=0;resizeLast=0;collapsible=1;marginBottom=0;" parent="1" vertex="1">
                    <mxGeometry x="480" y="10" width="300" height="216" as="geometry"/>
                </mxCell>
                <mxCell id="jVJawiF9bpjg_hJSosH5-2" value="- header: Header" style="text;strokeColor=none;fillColor=none;align=left;verticalAlign=top;spacingLeft=4;spacingRight=4;overflow=hidden;rotatable=0;points=[[0,0.5],[1,0.5]];portConstraint=eastwest;" parent="jVJawiF9bpjg_hJSosH5-1" vertex="1">
                    <mxGeometry y="26" width="300" height="26" as="geometry"/>
                </mxCell>
                <mxCell id="jVJawiF9bpjg_hJSosH5-14" value="- professionalSummary: String" style="text;strokeColor=none;fillColor=none;align=left;verticalAlign=top;spacingLeft=4;spacingRight=4;overflow=hidden;rotatable=0;points=[[0,0.5],[1,0.5]];portConstraint=eastwest;" parent="jVJawiF9bpjg_hJSosH5-1" vertex="1">
                    <mxGeometry y="52" width="300" height="26" as="geometry"/>
                </mxCell>
                <mxCell id="jVJawiF9bpjg_hJSosH5-15" value="- experiences[]: Experience[]" style="text;strokeColor=none;fillColor=none;align=left;verticalAlign=top;spacingLeft=4;spacingRight=4;overflow=hidden;rotatable=0;points=[[0,0.5],[1,0.5]];portConstraint=eastwest;" parent="jVJawiF9bpjg_hJSosH5-1" vertex="1">
                    <mxGeometry y="78" width="300" height="26" as="geometry"/>
                </mxCell>
                <mxCell id="jVJawiF9bpjg_hJSosH5-16" value="- educationalQualifications[]: EducationQualification" style="text;strokeColor=none;fillColor=none;align=left;verticalAlign=top;spacingLeft=4;spacingRight=4;overflow=hidden;rotatable=0;points=[[0,0.5],[1,0.5]];portConstraint=eastwest;" parent="jVJawiF9bpjg_hJSosH5-1" vertex="1">
                    <mxGeometry y="104" width="300" height="26" as="geometry"/>
                </mxCell>
                <mxCell id="jVJawiF9bpjg_hJSosH5-17" value="- lanuages[]: String[]" style="text;strokeColor=none;fillColor=none;align=left;verticalAlign=top;spacingLeft=4;spacingRight=4;overflow=hidden;rotatable=0;points=[[0,0.5],[1,0.5]];portConstraint=eastwest;" parent="jVJawiF9bpjg_hJSosH5-1" vertex="1">
                    <mxGeometry y="130" width="300" height="26" as="geometry"/>
                </mxCell>
                <mxCell id="jVJawiF9bpjg_hJSosH5-10" value="- personalDetails: PersonalDetails" style="text;strokeColor=none;fillColor=none;align=left;verticalAlign=top;spacingLeft=4;spacingRight=4;overflow=hidden;rotatable=0;points=[[0,0.5],[1,0.5]];portConstraint=eastwest;" parent="jVJawiF9bpjg_hJSosH5-1" vertex="1">
                    <mxGeometry y="156" width="300" height="26" as="geometry"/>
                </mxCell>
                <mxCell id="jVJawiF9bpjg_hJSosH5-3" value="" style="line;strokeWidth=1;fillColor=none;align=left;verticalAlign=middle;spacingTop=-1;spacingLeft=3;spacingRight=3;rotatable=0;labelPosition=right;points=[];portConstraint=eastwest;" parent="jVJawiF9bpjg_hJSosH5-1" vertex="1">
                    <mxGeometry y="182" width="300" height="8" as="geometry"/>
                </mxCell>
                <mxCell id="jVJawiF9bpjg_hJSosH5-4" value="+ display(): void" style="text;strokeColor=none;fillColor=none;align=left;verticalAlign=top;spacingLeft=4;spacingRight=4;overflow=hidden;rotatable=0;points=[[0,0.5],[1,0.5]];portConstraint=eastwest;" parent="jVJawiF9bpjg_hJSosH5-1" vertex="1">
                    <mxGeometry y="190" width="300" height="26" as="geometry"/>
                </mxCell>
                <mxCell id="jVJawiF9bpjg_hJSosH5-26" value="Experience" style="swimlane;fontStyle=1;align=center;verticalAlign=top;childLayout=stackLayout;horizontal=1;startSize=26;horizontalStack=0;resizeParent=1;resizeParentMax=0;resizeLast=0;collapsible=1;marginBottom=0;" parent="1" vertex="1">
                    <mxGeometry x="910" y="320" width="220" height="502" as="geometry"/>
                </mxCell>
                <mxCell id="jVJawiF9bpjg_hJSosH5-30" value="- designation: String" style="text;strokeColor=none;fillColor=none;align=left;verticalAlign=top;spacingLeft=4;spacingRight=4;overflow=hidden;rotatable=0;points=[[0,0.5],[1,0.5]];portConstraint=eastwest;" parent="jVJawiF9bpjg_hJSosH5-26" vertex="1">
                    <mxGeometry y="26" width="220" height="26" as="geometry"/>
                </mxCell>
                <mxCell id="jVJawiF9bpjg_hJSosH5-31" value="- startDate: String" style="text;strokeColor=none;fillColor=none;align=left;verticalAlign=top;spacingLeft=4;spacingRight=4;overflow=hidden;rotatable=0;points=[[0,0.5],[1,0.5]];portConstraint=eastwest;" parent="jVJawiF9bpjg_hJSosH5-26" vertex="1">
                    <mxGeometry y="52" width="220" height="26" as="geometry"/>
                </mxCell>
                <mxCell id="jVJawiF9bpjg_hJSosH5-32" value="- endDate: String" style="text;strokeColor=none;fillColor=none;align=left;verticalAlign=top;spacingLeft=4;spacingRight=4;overflow=hidden;rotatable=0;points=[[0,0.5],[1,0.5]];portConstraint=eastwest;" parent="jVJawiF9bpjg_hJSosH5-26" vertex="1">
                    <mxGeometry y="78" width="220" height="26" as="geometry"/>
                </mxCell>
                <mxCell id="jVJawiF9bpjg_hJSosH5-33" value="- organization: String" style="text;strokeColor=none;fillColor=none;align=left;verticalAlign=top;spacingLeft=4;spacingRight=4;overflow=hidden;rotatable=0;points=[[0,0.5],[1,0.5]];portConstraint=eastwest;" parent="jVJawiF9bpjg_hJSosH5-26" vertex="1">
                    <mxGeometry y="104" width="220" height="26" as="geometry"/>
                </mxCell>
                <mxCell id="jVJawiF9bpjg_hJSosH5-34" value="- description: String" style="text;strokeColor=none;fillColor=none;align=left;verticalAlign=top;spacingLeft=4;spacingRight=4;overflow=hidden;rotatable=0;points=[[0,0.5],[1,0.5]];portConstraint=eastwest;" parent="jVJawiF9bpjg_hJSosH5-26" vertex="1">
                    <mxGeometry y="130" width="220" height="26" as="geometry"/>
                </mxCell>
                <mxCell id="jVJawiF9bpjg_hJSosH5-27" value="- highlights: String[]" style="text;strokeColor=none;fillColor=none;align=left;verticalAlign=top;spacingLeft=4;spacingRight=4;overflow=hidden;rotatable=0;points=[[0,0.5],[1,0.5]];portConstraint=eastwest;" parent="jVJawiF9bpjg_hJSosH5-26" vertex="1">
                    <mxGeometry y="156" width="220" height="26" as="geometry"/>
                </mxCell>
                <mxCell id="jVJawiF9bpjg_hJSosH5-28" value="" style="line;strokeWidth=1;fillColor=none;align=left;verticalAlign=middle;spacingTop=-1;spacingLeft=3;spacingRight=3;rotatable=0;labelPosition=right;points=[];portConstraint=eastwest;" parent="jVJawiF9bpjg_hJSosH5-26" vertex="1">
                    <mxGeometry y="182" width="220" height="8" as="geometry"/>
                </mxCell>
                <mxCell id="jVJawiF9bpjg_hJSosH5-50" value="+ setDesignation(String): void" style="text;strokeColor=none;fillColor=none;align=left;verticalAlign=top;spacingLeft=4;spacingRight=4;overflow=hidden;rotatable=0;points=[[0,0.5],[1,0.5]];portConstraint=eastwest;" parent="jVJawiF9bpjg_hJSosH5-26" vertex="1">
                    <mxGeometry y="190" width="220" height="26" as="geometry"/>
                </mxCell>
                <mxCell id="jVJawiF9bpjg_hJSosH5-51" value="+ setStartDate(String): void" style="text;strokeColor=none;fillColor=none;align=left;verticalAlign=top;spacingLeft=4;spacingRight=4;overflow=hidden;rotatable=0;points=[[0,0.5],[1,0.5]];portConstraint=eastwest;" parent="jVJawiF9bpjg_hJSosH5-26" vertex="1">
                    <mxGeometry y="216" width="220" height="26" as="geometry"/>
                </mxCell>
                <mxCell id="jVJawiF9bpjg_hJSosH5-52" value="+  setEndDate(String): void" style="text;strokeColor=none;fillColor=none;align=left;verticalAlign=top;spacingLeft=4;spacingRight=4;overflow=hidden;rotatable=0;points=[[0,0.5],[1,0.5]];portConstraint=eastwest;" parent="jVJawiF9bpjg_hJSosH5-26" vertex="1">
                    <mxGeometry y="242" width="220" height="26" as="geometry"/>
                </mxCell>
                <mxCell id="jVJawiF9bpjg_hJSosH5-53" value="+ setOrganization(String): void" style="text;strokeColor=none;fillColor=none;align=left;verticalAlign=top;spacingLeft=4;spacingRight=4;overflow=hidden;rotatable=0;points=[[0,0.5],[1,0.5]];portConstraint=eastwest;" parent="jVJawiF9bpjg_hJSosH5-26" vertex="1">
                    <mxGeometry y="268" width="220" height="26" as="geometry"/>
                </mxCell>
                <mxCell id="jVJawiF9bpjg_hJSosH5-54" value="+ setOrganizationAddress(String): void" style="text;strokeColor=none;fillColor=none;align=left;verticalAlign=top;spacingLeft=4;spacingRight=4;overflow=hidden;rotatable=0;points=[[0,0.5],[1,0.5]];portConstraint=eastwest;" parent="jVJawiF9bpjg_hJSosH5-26" vertex="1">
                    <mxGeometry y="294" width="220" height="26" as="geometry"/>
                </mxCell>
                <mxCell id="jVJawiF9bpjg_hJSosH5-55" value="+ setResponsibility(String): void" style="text;strokeColor=none;fillColor=none;align=left;verticalAlign=top;spacingLeft=4;spacingRight=4;overflow=hidden;rotatable=0;points=[[0,0.5],[1,0.5]];portConstraint=eastwest;" parent="jVJawiF9bpjg_hJSosH5-26" vertex="1">
                    <mxGeometry y="320" width="220" height="26" as="geometry"/>
                </mxCell>
                <mxCell id="jVJawiF9bpjg_hJSosH5-56" value="+ getDesignation(): String" style="text;strokeColor=none;fillColor=none;align=left;verticalAlign=top;spacingLeft=4;spacingRight=4;overflow=hidden;rotatable=0;points=[[0,0.5],[1,0.5]];portConstraint=eastwest;" parent="jVJawiF9bpjg_hJSosH5-26" vertex="1">
                    <mxGeometry y="346" width="220" height="26" as="geometry"/>
                </mxCell>
                <mxCell id="jVJawiF9bpjg_hJSosH5-57" value="+ getStartDate(): String" style="text;strokeColor=none;fillColor=none;align=left;verticalAlign=top;spacingLeft=4;spacingRight=4;overflow=hidden;rotatable=0;points=[[0,0.5],[1,0.5]];portConstraint=eastwest;" parent="jVJawiF9bpjg_hJSosH5-26" vertex="1">
                    <mxGeometry y="372" width="220" height="26" as="geometry"/>
                </mxCell>
                <mxCell id="jVJawiF9bpjg_hJSosH5-58" value="+ getEndDate(): String" style="text;strokeColor=none;fillColor=none;align=left;verticalAlign=top;spacingLeft=4;spacingRight=4;overflow=hidden;rotatable=0;points=[[0,0.5],[1,0.5]];portConstraint=eastwest;" parent="jVJawiF9bpjg_hJSosH5-26" vertex="1">
                    <mxGeometry y="398" width="220" height="26" as="geometry"/>
                </mxCell>
                <mxCell id="jVJawiF9bpjg_hJSosH5-59" value="+ getOrganization: String" style="text;strokeColor=none;fillColor=none;align=left;verticalAlign=top;spacingLeft=4;spacingRight=4;overflow=hidden;rotatable=0;points=[[0,0.5],[1,0.5]];portConstraint=eastwest;" parent="jVJawiF9bpjg_hJSosH5-26" vertex="1">
                    <mxGeometry y="424" width="220" height="26" as="geometry"/>
                </mxCell>
                <mxCell id="jVJawiF9bpjg_hJSosH5-60" value="+ getOrganizationAddress: String" style="text;strokeColor=none;fillColor=none;align=left;verticalAlign=top;spacingLeft=4;spacingRight=4;overflow=hidden;rotatable=0;points=[[0,0.5],[1,0.5]];portConstraint=eastwest;" parent="jVJawiF9bpjg_hJSosH5-26" vertex="1">
                    <mxGeometry y="450" width="220" height="26" as="geometry"/>
                </mxCell>
                <mxCell id="jVJawiF9bpjg_hJSosH5-29" value="+ getResponsibilities(): String[]" style="text;strokeColor=none;fillColor=none;align=left;verticalAlign=top;spacingLeft=4;spacingRight=4;overflow=hidden;rotatable=0;points=[[0,0.5],[1,0.5]];portConstraint=eastwest;" parent="jVJawiF9bpjg_hJSosH5-26" vertex="1">
                    <mxGeometry y="476" width="220" height="26" as="geometry"/>
                </mxCell>
                <mxCell id="jVJawiF9bpjg_hJSosH5-18" value="Header" style="swimlane;fontStyle=1;align=center;verticalAlign=top;childLayout=stackLayout;horizontal=1;startSize=26;horizontalStack=0;resizeParent=1;resizeParentMax=0;resizeLast=0;collapsible=1;marginBottom=0;" parent="1" vertex="1">
                    <mxGeometry x="610" y="380" width="160" height="346" as="geometry"/>
                </mxCell>
                <mxCell id="jVJawiF9bpjg_hJSosH5-22" value="- name: String" style="text;strokeColor=none;fillColor=none;align=left;verticalAlign=top;spacingLeft=4;spacingRight=4;overflow=hidden;rotatable=0;points=[[0,0.5],[1,0.5]];portConstraint=eastwest;" parent="jVJawiF9bpjg_hJSosH5-18" vertex="1">
                    <mxGeometry y="26" width="160" height="26" as="geometry"/>
                </mxCell>
                <mxCell id="jVJawiF9bpjg_hJSosH5-23" value="- address: String" style="text;strokeColor=none;fillColor=none;align=left;verticalAlign=top;spacingLeft=4;spacingRight=4;overflow=hidden;rotatable=0;points=[[0,0.5],[1,0.5]];portConstraint=eastwest;" parent="jVJawiF9bpjg_hJSosH5-18" vertex="1">
                    <mxGeometry y="52" width="160" height="26" as="geometry"/>
                </mxCell>
                <mxCell id="jVJawiF9bpjg_hJSosH5-24" value="- phone: String" style="text;strokeColor=none;fillColor=none;align=left;verticalAlign=top;spacingLeft=4;spacingRight=4;overflow=hidden;rotatable=0;points=[[0,0.5],[1,0.5]];portConstraint=eastwest;" parent="jVJawiF9bpjg_hJSosH5-18" vertex="1">
                    <mxGeometry y="78" width="160" height="26" as="geometry"/>
                </mxCell>
                <mxCell id="jVJawiF9bpjg_hJSosH5-19" value="- email: String" style="text;strokeColor=none;fillColor=none;align=left;verticalAlign=top;spacingLeft=4;spacingRight=4;overflow=hidden;rotatable=0;points=[[0,0.5],[1,0.5]];portConstraint=eastwest;" parent="jVJawiF9bpjg_hJSosH5-18" vertex="1">
                    <mxGeometry y="104" width="160" height="26" as="geometry"/>
                </mxCell>
                <mxCell id="2" value="+ setName(String): void" style="text;strokeColor=none;fillColor=none;align=left;verticalAlign=top;spacingLeft=4;spacingRight=4;overflow=hidden;rotatable=0;points=[[0,0.5],[1,0.5]];portConstraint=eastwest;" parent="jVJawiF9bpjg_hJSosH5-18" vertex="1">
                    <mxGeometry y="130" width="160" height="26" as="geometry"/>
                </mxCell>
                <mxCell id="4" value="+ getName(): String" style="text;strokeColor=none;fillColor=none;align=left;verticalAlign=top;spacingLeft=4;spacingRight=4;overflow=hidden;rotatable=0;points=[[0,0.5],[1,0.5]];portConstraint=eastwest;" parent="jVJawiF9bpjg_hJSosH5-18" vertex="1">
                    <mxGeometry y="156" width="160" height="26" as="geometry"/>
                </mxCell>
                <mxCell id="5" value="+ setAddress(String): void" style="text;strokeColor=none;fillColor=none;align=left;verticalAlign=top;spacingLeft=4;spacingRight=4;overflow=hidden;rotatable=0;points=[[0,0.5],[1,0.5]];portConstraint=eastwest;" parent="jVJawiF9bpjg_hJSosH5-18" vertex="1">
                    <mxGeometry y="182" width="160" height="26" as="geometry"/>
                </mxCell>
                <mxCell id="6" value="+ getAddress(): String" style="text;strokeColor=none;fillColor=none;align=left;verticalAlign=top;spacingLeft=4;spacingRight=4;overflow=hidden;rotatable=0;points=[[0,0.5],[1,0.5]];portConstraint=eastwest;" parent="jVJawiF9bpjg_hJSosH5-18" vertex="1">
                    <mxGeometry y="208" width="160" height="26" as="geometry"/>
                </mxCell>
                <mxCell id="3" value="+ setPhone(String): void" style="text;strokeColor=none;fillColor=none;align=left;verticalAlign=top;spacingLeft=4;spacingRight=4;overflow=hidden;rotatable=0;points=[[0,0.5],[1,0.5]];portConstraint=eastwest;" parent="jVJawiF9bpjg_hJSosH5-18" vertex="1">
                    <mxGeometry y="234" width="160" height="26" as="geometry"/>
                </mxCell>
                <mxCell id="7" value="+ getPhone(): String" style="text;strokeColor=none;fillColor=none;align=left;verticalAlign=top;spacingLeft=4;spacingRight=4;overflow=hidden;rotatable=0;points=[[0,0.5],[1,0.5]];portConstraint=eastwest;" parent="jVJawiF9bpjg_hJSosH5-18" vertex="1">
                    <mxGeometry y="260" width="160" height="26" as="geometry"/>
                </mxCell>
                <mxCell id="8" value="+ setEmail(String): void" style="text;strokeColor=none;fillColor=none;align=left;verticalAlign=top;spacingLeft=4;spacingRight=4;overflow=hidden;rotatable=0;points=[[0,0.5],[1,0.5]];portConstraint=eastwest;" parent="jVJawiF9bpjg_hJSosH5-18" vertex="1">
                    <mxGeometry y="286" width="160" height="26" as="geometry"/>
                </mxCell>
                <mxCell id="jVJawiF9bpjg_hJSosH5-20" value="" style="line;strokeWidth=1;fillColor=none;align=left;verticalAlign=middle;spacingTop=-1;spacingLeft=3;spacingRight=3;rotatable=0;labelPosition=right;points=[];portConstraint=eastwest;" parent="jVJawiF9bpjg_hJSosH5-18" vertex="1">
                    <mxGeometry y="312" width="160" height="8" as="geometry"/>
                </mxCell>
                <mxCell id="jVJawiF9bpjg_hJSosH5-21" value="+ getEmail(): String" style="text;strokeColor=none;fillColor=none;align=left;verticalAlign=top;spacingLeft=4;spacingRight=4;overflow=hidden;rotatable=0;points=[[0,0.5],[1,0.5]];portConstraint=eastwest;" parent="jVJawiF9bpjg_hJSosH5-18" vertex="1">
                    <mxGeometry y="320" width="160" height="26" as="geometry"/>
                </mxCell>
                <mxCell id="jVJawiF9bpjg_hJSosH5-36" value="EducationalQualification" style="swimlane;fontStyle=1;align=center;verticalAlign=top;childLayout=stackLayout;horizontal=1;startSize=26;horizontalStack=0;resizeParent=1;resizeParentMax=0;resizeLast=0;collapsible=1;marginBottom=0;" parent="1" vertex="1">
                    <mxGeometry x="380" y="380" width="160" height="164" as="geometry"/>
                </mxCell>
                <mxCell id="jVJawiF9bpjg_hJSosH5-43" value="- examCourse: String" style="text;strokeColor=none;fillColor=none;align=left;verticalAlign=top;spacingLeft=4;spacingRight=4;overflow=hidden;rotatable=0;points=[[0,0.5],[1,0.5]];portConstraint=eastwest;" parent="jVJawiF9bpjg_hJSosH5-36" vertex="1">
                    <mxGeometry y="26" width="160" height="26" as="geometry"/>
                </mxCell>
                <mxCell id="jVJawiF9bpjg_hJSosH5-45" value="- boardUniversity: String" style="text;strokeColor=none;fillColor=none;align=left;verticalAlign=top;spacingLeft=4;spacingRight=4;overflow=hidden;rotatable=0;points=[[0,0.5],[1,0.5]];portConstraint=eastwest;" parent="jVJawiF9bpjg_hJSosH5-36" vertex="1">
                    <mxGeometry y="52" width="160" height="26" as="geometry"/>
                </mxCell>
                <mxCell id="jVJawiF9bpjg_hJSosH5-44" value="- year: int" style="text;strokeColor=none;fillColor=none;align=left;verticalAlign=top;spacingLeft=4;spacingRight=4;overflow=hidden;rotatable=0;points=[[0,0.5],[1,0.5]];portConstraint=eastwest;" parent="jVJawiF9bpjg_hJSosH5-36" vertex="1">
                    <mxGeometry y="78" width="160" height="26" as="geometry"/>
                </mxCell>
                <mxCell id="jVJawiF9bpjg_hJSosH5-37" value="- gradePercentage: String" style="text;strokeColor=none;fillColor=none;align=left;verticalAlign=top;spacingLeft=4;spacingRight=4;overflow=hidden;rotatable=0;points=[[0,0.5],[1,0.5]];portConstraint=eastwest;" parent="jVJawiF9bpjg_hJSosH5-36" vertex="1">
                    <mxGeometry y="104" width="160" height="26" as="geometry"/>
                </mxCell>
                <mxCell id="jVJawiF9bpjg_hJSosH5-38" value="" style="line;strokeWidth=1;fillColor=none;align=left;verticalAlign=middle;spacingTop=-1;spacingLeft=3;spacingRight=3;rotatable=0;labelPosition=right;points=[];portConstraint=eastwest;" parent="jVJawiF9bpjg_hJSosH5-36" vertex="1">
                    <mxGeometry y="130" width="160" height="8" as="geometry"/>
                </mxCell>
                <mxCell id="jVJawiF9bpjg_hJSosH5-39" value="+ method(type): type" style="text;strokeColor=none;fillColor=none;align=left;verticalAlign=top;spacingLeft=4;spacingRight=4;overflow=hidden;rotatable=0;points=[[0,0.5],[1,0.5]];portConstraint=eastwest;" parent="jVJawiF9bpjg_hJSosH5-36" vertex="1">
                    <mxGeometry y="138" width="160" height="26" as="geometry"/>
                </mxCell>
                <mxCell id="jVJawiF9bpjg_hJSosH5-5" value="PersonalDetails" style="swimlane;fontStyle=1;align=center;verticalAlign=top;childLayout=stackLayout;horizontal=1;startSize=26;horizontalStack=0;resizeParent=1;resizeParentMax=0;resizeLast=0;collapsible=1;marginBottom=0;" parent="1" vertex="1">
                    <mxGeometry x="130" y="372" width="160" height="164" as="geometry"/>
                </mxCell>
                <mxCell id="jVJawiF9bpjg_hJSosH5-40" value="- dateOfBirth: String" style="text;strokeColor=none;fillColor=none;align=left;verticalAlign=top;spacingLeft=4;spacingRight=4;overflow=hidden;rotatable=0;points=[[0,0.5],[1,0.5]];portConstraint=eastwest;" parent="jVJawiF9bpjg_hJSosH5-5" vertex="1">
                    <mxGeometry y="26" width="160" height="26" as="geometry"/>
                </mxCell>
                <mxCell id="jVJawiF9bpjg_hJSosH5-41" value="- gender: String" style="text;strokeColor=none;fillColor=none;align=left;verticalAlign=top;spacingLeft=4;spacingRight=4;overflow=hidden;rotatable=0;points=[[0,0.5],[1,0.5]];portConstraint=eastwest;" parent="jVJawiF9bpjg_hJSosH5-5" vertex="1">
                    <mxGeometry y="52" width="160" height="26" as="geometry"/>
                </mxCell>
                <mxCell id="jVJawiF9bpjg_hJSosH5-42" value="- fathersName: String" style="text;strokeColor=none;fillColor=none;align=left;verticalAlign=top;spacingLeft=4;spacingRight=4;overflow=hidden;rotatable=0;points=[[0,0.5],[1,0.5]];portConstraint=eastwest;" parent="jVJawiF9bpjg_hJSosH5-5" vertex="1">
                    <mxGeometry y="78" width="160" height="26" as="geometry"/>
                </mxCell>
                <mxCell id="jVJawiF9bpjg_hJSosH5-6" value="- maritalStatus: String" style="text;strokeColor=none;fillColor=none;align=left;verticalAlign=top;spacingLeft=4;spacingRight=4;overflow=hidden;rotatable=0;points=[[0,0.5],[1,0.5]];portConstraint=eastwest;" parent="jVJawiF9bpjg_hJSosH5-5" vertex="1">
                    <mxGeometry y="104" width="160" height="26" as="geometry"/>
                </mxCell>
                <mxCell id="jVJawiF9bpjg_hJSosH5-7" value="" style="line;strokeWidth=1;fillColor=none;align=left;verticalAlign=middle;spacingTop=-1;spacingLeft=3;spacingRight=3;rotatable=0;labelPosition=right;points=[];portConstraint=eastwest;" parent="jVJawiF9bpjg_hJSosH5-5" vertex="1">
                    <mxGeometry y="130" width="160" height="8" as="geometry"/>
                </mxCell>
                <mxCell id="jVJawiF9bpjg_hJSosH5-8" value="+ method(type): type" style="text;strokeColor=none;fillColor=none;align=left;verticalAlign=top;spacingLeft=4;spacingRight=4;overflow=hidden;rotatable=0;points=[[0,0.5],[1,0.5]];portConstraint=eastwest;" parent="jVJawiF9bpjg_hJSosH5-5" vertex="1">
                    <mxGeometry y="138" width="160" height="26" as="geometry"/>
                </mxCell>
                <mxCell id="jVJawiF9bpjg_hJSosH5-46" value="" style="endArrow=diamondThin;endFill=1;endSize=24;html=1;exitX=0.5;exitY=0;exitDx=0;exitDy=0;entryX=0.223;entryY=1.154;entryDx=0;entryDy=0;entryPerimeter=0;" parent="1" source="jVJawiF9bpjg_hJSosH5-36" target="jVJawiF9bpjg_hJSosH5-4" edge="1">
                    <mxGeometry width="160" relative="1" as="geometry">
                        <mxPoint x="692.96" y="390.98400000000004" as="sourcePoint"/>
                        <mxPoint x="609.0999999999999" y="238.99" as="targetPoint"/>
                    </mxGeometry>
                </mxCell>
                <mxCell id="jVJawiF9bpjg_hJSosH5-47" value="" style="endArrow=diamondThin;endFill=1;endSize=24;html=1;exitX=0.5;exitY=0;exitDx=0;exitDy=0;entryX=0.123;entryY=1.154;entryDx=0;entryDy=0;entryPerimeter=0;" parent="1" source="jVJawiF9bpjg_hJSosH5-5" target="jVJawiF9bpjg_hJSosH5-4" edge="1">
                    <mxGeometry width="160" relative="1" as="geometry">
                        <mxPoint x="470" y="390" as="sourcePoint"/>
                        <mxPoint x="556.9000000000001" y="240.00400000000002" as="targetPoint"/>
                    </mxGeometry>
                </mxCell>
            </root>
        </mxGraphModel>
    </diagram>
</mxfile>